<?xml version="1.0" encoding="UTF-8"?>
<svg id="Layer_1" data-name="Layer 1" xmlns="http://www.w3.org/2000/svg" xmlns:xlink="http://www.w3.org/1999/xlink" viewBox="0 0 128 128">
  <defs>
    <style>
      .cls-1 {
        fill: none;
      }

      .cls-2 {
        clip-path: url(#clippath);
      }

      .cls-3 {
        fill: #ed2d28;
      }

      .cls-4 {
        fill: #fff;
      }

      .cls-5 {
        fill: #1677fd;
      }

      .cls-6 {
        fill: #07c160;
      }

      .cls-7 {
        filter: url(#drop-shadow-2);
      }

      .cls-8 {
        filter: url(#drop-shadow-1);
      }
    </style>
    <clipPath id="clippath">
      <rect class="cls-1" width="128" height="128"/>
    </clipPath>
    <filter id="drop-shadow-1" filterUnits="userSpaceOnUse">
      <feOffset dx="-2" dy="-3"/>
      <feGaussianBlur result="blur" stdDeviation="9"/>
      <feFlood flood-color="#0a0a0a" flood-opacity=".1"/>
      <feComposite in2="blur" operator="in"/>
      <feComposite in="SourceGraphic"/>
    </filter>
    <filter id="drop-shadow-2" filterUnits="userSpaceOnUse">
      <feOffset dx="-2" dy="-3"/>
      <feGaussianBlur result="blur-2" stdDeviation="9"/>
      <feFlood flood-color="#0a0a0a" flood-opacity=".1"/>
      <feComposite in2="blur-2" operator="in"/>
      <feComposite in="SourceGraphic"/>
    </filter>
  </defs>
  <g class="cls-2">
    <g>
      <rect class="cls-6" x="0" width="128" height="66"/>
      <rect class="cls-5" y="65.5" width="128" height="63"/>
      <g class="cls-8">
        <path id="Path_23386" data-name="Path 23386" class="cls-4" d="M37.71,41.3c-.13,.06-.26,.1-.4,.12-.33,0-.64-.17-.81-.46l-.06-.12-2.47-5.41s-.07-.11-.06-.17c.02-.25,.21-.44,.46-.46,.12,0,.17,.06,.29,.12l2.93,2.07c.23,.14,.48,.22,.75,.23,.17,0,.29-.06,.46-.06l13.69-6.1c-2.82-3.11-6.85-4.85-11.05-4.78-7.48,0-13.52,5.06-13.52,11.28,0,3.39,1.84,6.44,4.66,8.52,.24,.18,.39,.45,.4,.75,0,.1-.01,.2-.06,.29-.23,.86-.58,2.24-.63,2.3-.05,.11-.07,.23-.06,.35,.02,.25,.21,.44,.46,.46,.12,0,.17-.06,.23-.06l2.99-1.73c.21-.13,.45-.21,.69-.23,.14,0,.27,.01,.4,.06,1.44,.42,2.93,.63,4.43,.63,7.48,0,13.58-5.06,13.58-11.28-.01-1.86-.55-3.67-1.55-5.24l-15.77,8.92Z"/>
        <g id="Group_18007" data-name="Group 18007">
          <g id="Group_18006" data-name="Group 18006">
            <rect id="Rectangle_703" data-name="Rectangle 703" class="cls-4" x="72.75" y="31.12" width="5.87" height=".52"/>
            <rect id="Rectangle_704" data-name="Rectangle 704" class="cls-4" x="72.75" y="32.73" width="5.87" height=".58"/>
            <path id="Path_23387" data-name="Path 23387" class="cls-4" d="M78.44,34.4h-5.58s0,3.16,0,3.16h5.52s.06-3.16,.06-3.16Zm-5.01,.52h4.43v2.13h-4.43v-2.13Z"/>
            <path id="Path_23388" data-name="Path 23388" class="cls-4" d="M71.13,37.91v-7.25c.35-.72,.64-1.47,.86-2.24l-.52-.29c-.46,1.73-1.22,3.36-2.24,4.83l.29,.52c.38-.52,.71-1.08,.98-1.67v6.1s.63,0,.63,0Z"/>
            <path id="Path_23389" data-name="Path 23389" class="cls-4" d="M92.37,37.91v-7.25c.35-.72,.64-1.47,.86-2.24l-.52-.29c-.46,1.73-1.22,3.36-2.24,4.83l.29,.52c.38-.52,.71-1.08,.98-1.67v6.1s.63,0,.63,0Z"/>
            <path id="Path_23390" data-name="Path 23390" class="cls-4" d="M79.19,29.45h-3.45s.35-.23,.35-.23h0l-.29-.58-.29-.58h0l-.52,.29h0c.17,.35,.35,.69,.52,.98,0,.06,.06,.06,.06,.12h-3.45s0,.58,0,.58h7.08s0-.58,0-.58Z"/>
            <path id="Path_23391" data-name="Path 23391" class="cls-4" d="M64.12,28.99h-.52s0,1.84,0,1.84h-.98v-2.59s-.52,0-.52,0v2.59h-1.04v-1.84s-.52,0-.52,0v2.36s3.57,0,3.57,0v-2.36Z"/>
            <rect id="Rectangle_705" data-name="Rectangle 705" class="cls-4" x="60.66" y="32.38" width="3.16" height=".52"/>
            <path id="Path_23392" data-name="Path 23392" class="cls-4" d="M61.35,34.92v-.46h1.61v1.15c.02,.26-.04,.52-.17,.75h0l.35,.58h0c.29-.23,.75-.63,1.44-1.21h0l-.23-.46h0l-.81,.69v-1.96s-2.76,0-2.76,0v.81c.06,1.09-.17,1.84-.81,2.3h0l.29,.52h0c.79-.66,1.2-1.68,1.09-2.7"/>
            <path id="Path_23393" data-name="Path 23393" class="cls-4" d="M57.96,30.72l.29,.58c.82-.83,1.5-1.78,2.01-2.82l-.52-.29c-.45,.94-1.05,1.8-1.78,2.53"/>
            <path id="Path_23394" data-name="Path 23394" class="cls-4" d="M57.79,34l.29,.52h0c.29-.35,.63-.75,.92-1.15v4.55s.52,0,.52,0v-5.41c.23-.4,.46-.92,.69-1.38h0l-.52-.29h0c-.44,1.16-1.08,2.23-1.9,3.16h0Z"/>
            <path id="Path_23395" data-name="Path 23395" class="cls-4" d="M67.97,30.54v-.52s-2.3,0-2.3,0c.25-.61,.42-1.25,.52-1.9h-.58c-.28,1.44-.8,2.82-1.55,4.09l.35,.58,.23-.46c.09-.13,.16-.26,.23-.4,.11,1.17,.4,2.32,.86,3.39-.47,.79-1.08,1.49-1.78,2.07h0l.29,.52h0c.66-.59,1.24-1.27,1.73-2.01,.44,.76,.98,1.46,1.61,2.07h0l.29-.52h0c-.65-.58-1.19-1.26-1.61-2.01,.69-1.48,1.06-3.09,1.09-4.72,0,0,.63-.17,.63-.17Zm-1.96,4.09c-.38-1.16-.64-2.35-.75-3.57,.06-.17,.12-.29,.17-.46h1.38c0,1.38-.28,2.75-.81,4.03"/>
            <path id="Path_23396" data-name="Path 23396" class="cls-4" d="M89.78,29.97v-.58s-4.49,0-4.49,0v-1.44s-.58,0-.58,0v1.44h-4.37s0,.58,0,.58h4.43v1.84h-2.88s0,.52,0,.52c.37,.73,.81,1.43,1.32,2.07,.4,.48,.84,.93,1.32,1.32-1.23,.77-2.6,1.29-4.03,1.55l.35,.58c1.47-.37,2.86-.98,4.14-1.78,1.17,.85,2.5,1.45,3.91,1.78h0l.23-.46s-.63-.17-1.55-.52c-.79-.3-1.54-.69-2.24-1.15,1.25-.93,2.23-2.18,2.82-3.62l-.46-.29h-2.42v-1.84h4.49Zm-2.24,2.36c-.53,1.24-1.41,2.3-2.53,3.05-1.06-.82-1.93-1.86-2.53-3.05h5.06Z"/>
            <path id="Path_23397" data-name="Path 23397" class="cls-4" d="M96.97,37.16h-.35s0,.58,0,.58h.52c.4,.05,.8-.08,1.09-.35,.25-.28,.37-.66,.35-1.04v-5.24h1.5s0-.58,0-.58h-1.5v-2.42s-.58,0-.58,0v2.42h-4.66s0,.58,0,.58h4.66v5.24c0,.58-.35,.81-1.04,.81"/>
            <path id="Path_23398" data-name="Path 23398" class="cls-4" d="M95.7,35.32l.58-.35c-.29-.63-.69-1.44-1.21-2.42l-.52,.29c.35,.69,.75,1.5,1.15,2.47"/>
          </g>
          <g>
            <path class="cls-4" d="M63.83,44.01c-.07,.15-.1,.3-.12,.46-.17,.58-.29,1.09-.4,1.61-.13-.7-.3-1.39-.52-2.07l-.98-3.57h-.46s-1.04,3.62-1.04,3.62c-.23,.75-.46,1.5-.58,2.01-.12-.52-.23-1.09-.4-1.73l-1.04-3.91h-.52s1.73,6.44,1.73,6.44h.46s1.09-3.68,1.09-3.68c.24-.63,.41-1.29,.52-1.96,.12,.58,.23,1.15,.46,1.96l.98,3.68h.52s1.9-6.44,1.9-6.44h-.52s-1.09,3.57-1.09,3.57Z"/>
            <path class="cls-4" d="M68.83,46.25c-.38,.17-.79,.25-1.21,.23-1.04,0-1.67-.69-1.67-1.96h3.34s0-.35,0-.35c.01-.45-.11-.89-.35-1.27-.3-.53-.88-.84-1.5-.81-1.27,0-2.07,.98-2.07,2.47,0,1.38,.86,2.3,2.13,2.3,.49,0,.98-.09,1.44-.29h.06s-.17-.35-.17-.35Zm-1.38-3.68c.34,0,.67,.11,.92,.35,.27,.32,.41,.73,.4,1.15h-2.82c.06-.8,.69-1.44,1.5-1.5h0Z"/>
            <path class="cls-4" d="M73.21,46.48c-1.67,0-2.65-1.04-2.65-2.82s1.04-2.88,2.7-2.88c.43,.01,.86,.09,1.27,.23l.23-.4h0c-.47-.21-.98-.31-1.5-.29-1.72-.09-3.19,1.24-3.28,2.96,0,.13,0,.25,0,.38,0,2.42,1.61,3.28,3.05,3.28,.59,.02,1.19-.09,1.73-.35h0l-.23-.4c-.41,.2-.87,.3-1.32,.29Z"/>
            <path class="cls-4" d="M77.69,42.11c-.33,0-.65,.11-.92,.29-.25,.13-.45,.33-.58,.58v-2.65s-.52,0-.52,0v6.5s.52,0,.52,0v-2.82c0-.16,.01-.31,.06-.46,.2-.56,.72-.95,1.32-.98,1.04,0,1.21,.98,1.21,1.5v2.7s.52,0,.52,0v-2.76c.06-1.78-1.32-1.9-1.61-1.9Z"/>
            <path class="cls-4" d="M86.15,46.42c-.12,0-.23,.06-.4,.06-.4,0-.63-.29-.63-.92v-2.88h1.32s0-.46,0-.46h-1.32v-1.04s-.52,0-.52,0v1.04h-.75s0,.46,0,.46h.75v2.82c-.03,.39,.08,.77,.29,1.09,.2,.24,.5,.37,.81,.35,.22,0,.43-.04,.63-.12h0l-.17-.4Z"/>
            <path class="cls-4" d="M90.01,40.32c-.46,0-.92,.05-1.38,.12h-.06s0,6.33,0,6.33h.52s0-2.7,0-2.7c.25,.05,.5,.07,.75,.06,.7,.05,1.39-.2,1.9-.69,.31-.37,.48-.84,.46-1.32,.02-.48-.17-.94-.52-1.27-.48-.36-1.07-.54-1.67-.52Zm1.67,1.9c0,.98-.63,1.5-1.78,1.5-.25,0-.5,0-.75-.06v-2.76c.12,0,.4-.06,.86-.06,1.04-.06,1.67,.46,1.67,1.38Z"/>
            <path class="cls-4" d="M99.5,42.22l-1.09,2.93c-.12,.29-.17,.52-.29,.75,0,.06-.06,.12-.06,.17-.11-.28-.21-.57-.29-.86l-1.21-2.99h-.58s1.73,4.26,1.73,4.26c.03,.05,.05,.11,.06,.17,0,.06-.01,.13-.06,.17-.17,.43-.42,.82-.75,1.15-.22,.21-.47,.39-.75,.52h-.06s.23,.4,.23,.4c.27-.12,.52-.27,.75-.46,.58-.52,.98-1.32,1.55-2.76l1.38-3.45h-.58Z"/>
            <path class="cls-4" d="M83.45,46.77c-.05-.36-.07-.73-.06-1.09v-1.73c0-1.21-.58-1.84-1.61-1.84-.49,.02-.96,.16-1.38,.4h0l.23,.35c.32-.22,.71-.32,1.09-.29h0c.29,0,.58,.1,.81,.29,.25,.28,.37,.66,.35,1.04v.06c-1.09,0-1.9,.23-2.36,.69-.27,.27-.42,.65-.4,1.04,0,.7,.57,1.27,1.27,1.27,.04,0,.07,0,.11,0,.56,.02,1.1-.24,1.44-.69l.06,.63,.46-.12h0Zm-.58-1.44c0,.1-.02,.2-.06,.29-.22,.54-.74,.88-1.32,.86-.46,.02-.85-.33-.87-.79,0-.04,0-.09,0-.13,0-.26,.1-.51,.29-.69,.52-.35,1.15-.51,1.78-.46h.17v.92Z"/>
            <path class="cls-4" d="M95.59,46.77c-.05-.36-.07-.73-.06-1.09v-1.73c0-1.21-.58-1.84-1.61-1.84-.46,0-.92,.12-1.32,.35l.23,.35c.31-.19,.67-.29,1.04-.29h0c.29,0,.58,.1,.81,.29,.25,.28,.37,.66,.35,1.04v.06c-1.09,0-1.9,.23-2.36,.69-.27,.27-.42,.65-.4,1.04,0,.7,.57,1.27,1.27,1.27,.04,0,.07,0,.11,0,.56,.02,1.1-.24,1.44-.69l.06,.63,.46-.06h0Zm-.58-1.44c0,.1-.02,.2-.06,.29-.22,.54-.74,.88-1.32,.86-.46,.02-.85-.33-.87-.79,0-.04,0-.09,0-.13,0-.26,.1-.51,.29-.69,.52-.35,1.15-.51,1.78-.46h.17"/>
          </g>
        </g>
      </g>
      <g class="cls-7">
        <g>
          <path class="cls-4" d="M44.8,98.56c-2.23,2.68-5.02,4.34-7.99,4.34-4.96,0-6.68-4.34-4.28-7.19,.72-.8,1.68-1.34,2.74-1.54,2.11-.51,5.48,.34,8.67,1.37,.58-1.1,1.06-2.24,1.43-3.42h-9.76v-.97h5.02s0-1.77,0-1.77h-6.11v-1.03h6.11s0-2.51,0-2.51c0-.23,.19-.41,.42-.4,.01,0,.02,0,.04,0h2.45v2.97s6.05,0,6.05,0v.97h-6.05s0,1.77,0,1.77h4.91c-.43,1.85-1.15,3.62-2.11,5.25,1.48,.51,2.85,1.08,3.82,1.37,3.31,1.08,4.28,1.26,4.39,1.26h0v-12.9c.01-2.19-1.75-3.98-3.94-3.99-.02,0-.03,0-.05,0l-16.95-.06c-2.19-.01-3.98,1.75-3.99,3.94,0,.02,0,.03,0,.05l-.06,16.89c-.01,2.19,1.75,3.98,3.94,3.99,.02,0,.03,0,.05,0l16.95,.06c2.19,.01,3.98-1.75,3.99-3.94,0-.02,0-.03,0-.05v-.17c-.17-.06-6.5-2.74-9.7-4.28Z"/>
          <path class="cls-4" d="M35.67,95.59c-.88,.08-1.73,.4-2.45,.91-1.94,1.65-.8,4.74,3.08,4.74,2.28,0,4.51-1.43,6.28-3.71-2.45-1.26-4.62-2.17-6.9-1.94Z"/>
        </g>
        <g>
          <g>
            <path class="cls-4" d="M89.14,85.94h6.68v1.31s2.4,0,2.4,0v-1.54h0c0-.35-.28-.62-.63-.63h-3.82v-1.26s-2.51,0-2.51,0v1.26h-4.45s0,2.17,0,2.17h2.4s-.06-1.31-.06-1.31Z"/>
            <path class="cls-4" d="M74.76,83.89l-2.45,5.76h1.88s-.06,6.85-.06,6.85h2.05s0-9.07,0-9.07h-.68s1.54-3.54,1.54-3.54h-2.28Z"/>
            <path class="cls-4" d="M97.69,93.7c-.04-.16-.18-.28-.34-.29h-2s.57,1.94,.57,1.94h-2.34v-3.77h4.56s0-.91,0-.91h-4.56v-1.77h4.56s0-.91,0-.91h-11.41s0,.91,0,.91h4.56v1.77h-4.56s0,.91,0,.91h4.56v3.77h-4.56s0,.91,0,.91h11.7s-.74-2.57-.74-2.57Z"/>
            <path class="cls-4" d="M79.55,88.34h-1.77s1.37,4.34,1.37,4.34h2.11s-1.26-4.05-1.26-4.05c-.1-.16-.27-.27-.46-.29Z"/>
            <path class="cls-4" d="M84.46,83.78h-2.11s0,2.45,0,2.45h-5.25s0,.91,0,.91h5.25v7.99c-.01,.18-.16,.33-.34,.34h-1.08s0,.91,0,.91h2.74c.46-.02,.81-.4,.8-.86v-8.44h.86s0-.91,0-.91h-.86v-2.4Z"/>
            <path class="cls-4" d="M71.96,95.7c-1.64-.57-3.2-1.32-4.68-2.23,1.77-1.31,3.31-3.02,3.88-5.42h-4.11v-1.48h4.74s0-.91,0-.91h-4.74v-1.88s-2.11,0-2.11,0c-.22,0-.4,.19-.4,.41,0,.02,0,.03,0,.05h0v1.43h-4.68s0,.91,0,.91h4.68v1.48h-3.99s0,.86,0,.86h7.93s-.46,1.71-2.62,3.54c-1.01-.71-1.88-1.6-2.57-2.62h-2.11c.86,1.44,2,2.68,3.37,3.65-1.48,.94-3.1,1.66-4.79,2.11v1.08c2.16-.45,4.24-1.24,6.16-2.34,1.89,1.09,3.93,1.89,6.05,2.4v-1.03Z"/>
          </g>
          <path class="cls-4" d="M66.48,103.06l.34,1.03h.91s-1.83-4.96-1.83-4.96h-.68s-1.83,4.96-1.83,4.96h.91s.34-.97,.34-.97h1.83s0-.06,0-.06Zm-.91-2.74l.68,2.05h-1.43s.74-2.05,.74-2.05Z"/>
          <path class="cls-4" d="M70.19,99.07l-.06,4.96h3.02s0-.68,0-.68h-2.11v-4.28s-.86,0-.86,0Z"/>
          <rect class="cls-4" x="73.97" y="101.09" width="4.96" height=".91" transform="translate(-25.21 177.84) rotate(-89.91)"/>
          <path class="cls-4" d="M81.89,99.07h-1.94s0,4.96,0,4.96h.91s0-1.88,0-1.88h1.03c.84,.07,1.58-.56,1.65-1.4,0-.05,0-.09,0-.14-.01-.86-.72-1.55-1.58-1.54-.02,0-.05,0-.07,0Zm-.06,2.4h-.97v-1.71h.97c.47,0,.86,.38,.86,.86s-.38,.86-.86,.86Z"/>
          <path class="cls-4" d="M88.28,103.06l.34,1.03h.91s-1.83-4.96-1.83-4.96h-.68s-1.83,4.96-1.83,4.96h.91s.34-.97,.34-.97h1.83s0-.06,0-.06Zm-.86-2.68l.68,2.05h-1.43s.74-2.05,.74-2.05Z"/>
          <path class="cls-4" d="M94.04,99.13l-.97,2.11-.97-2.11h-.97s1.48,2.91,1.48,2.91v2.05s.91,0,.91,0v-2.05h0l1.48-2.91h-.97Z"/>
        </g>
      </g>
    </g>
    <rect class="cls-4" x="34.62" y="-2" width="58.75" height="16" rx="3.66" ry="3.66"/>
    <g>
      <path class="cls-3" d="M47.37,3.02c-2.14,0-3.87,1.73-3.87,3.87,0,1.26,.61,2.43,1.63,3.16v-3.15c0-1.24,1-2.25,2.24-2.25s2.25,1,2.25,2.24c0,1.24-1,2.25-2.24,2.25-.29,0-.57-.05-.83-.16l-1.2,1.22c1.33,.82,3.03,.75,4.29-.17l1.6,.74v-3.87c0-2.14-1.73-3.87-3.87-3.87,0,0,0,0,0,0Z"/>
      <circle class="cls-3" cx="51.7" cy="3.32" r=".86"/>
      <path class="cls-3" d="M58.73,9.49V4.65h.89v4.84h-.89Z"/>
      <path class="cls-3" d="M62.36,5.92c.46-.01,.9,.18,1.2,.52,.32,.35,.48,.78,.48,1.3s-.16,.95-.48,1.3c-.31,.34-.75,.53-1.2,.52-.44,.01-.86-.19-1.13-.54v1.75h-.88V6h.88v.46c.27-.35,.69-.55,1.13-.54Zm-.86,2.5c.38,.37,.98,.37,1.36,0,.36-.38,.36-.98,0-1.37-.38-.37-.98-.37-1.36,0-.36,.38-.36,.98,0,1.37Z"/>
      <path class="cls-3" d="M66.52,5.92c.4,0,.73,.12,.97,.36,.24,.24,.37,.57,.37,.97v2.24h-.87v-1.96c0-.23-.07-.42-.2-.56-.14-.14-.34-.22-.54-.21-.22,0-.43,.07-.59,.21-.15,.15-.23,.35-.22,.56v1.94h-.87V4.65h.87v1.8c.26-.35,.63-.53,1.09-.53Z"/>
      <path class="cls-3" d="M71.09,6h.87v3.48h-.87v-.51c-.27,.34-.68,.54-1.11,.53-.45,0-.89-.18-1.19-.52-.32-.34-.48-.77-.48-1.28s.16-.94,.48-1.28c.3-.34,.74-.52,1.19-.51,.43-.01,.85,.19,1.11,.53v-.45Zm-.95,2.66c.51,.01,.93-.39,.95-.9,0-.02,0-.03,0-.05,.01-.51-.39-.93-.9-.95-.02,0-.03,0-.05,0-.25,0-.49,.09-.67,.27-.36,.38-.36,.97,0,1.35,.18,.18,.42,.28,.67,.27Z"/>
      <path class="cls-3" d="M79.53,6h.87v3.48h-.87v-.51c-.27,.34-.68,.54-1.11,.53-.45,0-.89-.18-1.19-.51-.32-.34-.48-.77-.48-1.28s.16-.94,.48-1.28c.3-.34,.74-.52,1.19-.51,.43-.01,.85,.19,1.11,.53v-.45Zm-.95,2.66c.51,.01,.93-.39,.95-.9,0-.02,0-.03,0-.05,.01-.51-.39-.93-.9-.95-.02,0-.03,0-.05,0-.25,0-.49,.09-.67,.27-.36,.38-.36,.97,0,1.35,.18,.18,.42,.28,.67,.27Z"/>
      <path class="cls-3" d="M83.5,6h1l-2.01,4.76h-.96l.57-1.37-1.44-3.39h1.02l.91,2.31,.91-2.31Z"/>
      <polygon class="cls-3" points="56.37 4.65 55.17 4.65 53.21 9.49 54.31 9.49 54.51 8.97 54.5 8.97 55.01 7.66 55.01 7.66 55.76 5.72 56.5 7.66 55.54 7.66 55.19 8.55 56.85 8.55 57.21 9.49 58.32 9.49 56.37 4.65"/>
      <path class="cls-3" d="M75.94,5.16c-.36-.33-.81-.5-1.35-.5h-1.97v4.84h1.1v-3.85h.85c.21,0,.41,.07,.56,.22,.3,.3,.3,.79,0,1.09-.15,.14-.35,.22-.56,.22h-.64l.38,.99h.28c.54,0,.98-.17,1.35-.5,.35-.32,.55-.77,.54-1.25,0-.48-.19-.93-.54-1.25Z"/>
    </g>
  </g>
</svg>